<svg aria-hidden="true" style="position: absolute; width: 0; height: 0; overflow: hidden;" version="1.1" xmlns="http://www.w3.org/2000/svg" xmlns:xlink="http://www.w3.org/1999/xlink">
<defs>
<symbol id="icon-social-facebook" viewBox="0 0 24 24">
<path d="M13 10h3v3h-3v7h-3v-7h-3v-3h3v-1.255c0-1.189 0.374-2.691 1.118-3.512 0.744-0.823 1.673-1.233 2.786-1.233h2.096v3h-2.1c-0.498 0-0.9 0.402-0.9 0.899v2.101z"></path>
</symbol>
<symbol id="icon-quote" viewBox="0 0 32 32">
<path d="M16 3c-7.18 0-13 5.82-13 13s5.82 13 13 13 13-5.82 13-13-5.82-13-13-13zM16 27c-6.075 0-11-4.925-11-11s4.925-11 11-11 11 4.925 11 11-4.925 11-11 11zM14.652 11.771c-0.674-0.739-1.483-1.108-2.431-1.108-0.97 0-1.77 0.336-2.397 1.009-0.253 0.276-0.455 0.601-0.604 0.976s-0.223 0.756-0.223 1.141c0 0.794 0.224 1.47 0.67 2.027s1.029 0.89 1.747 1l0.249 0.016 0.215 0.034c0.331 0.044 0.497 0.171 0.497 0.38 0 0.221-0.221 0.568-0.663 1.042-0.464 0.507-1.198 1.021-2.203 1.538-0.42 0.221-0.629 0.496-0.629 0.827 0 0.21 0.071 0.384 0.215 0.521 0.143 0.138 0.325 0.206 0.546 0.206 0.551 0 1.312-0.319 2.282-0.959 1.146-0.75 2.062-1.662 2.745-2.738 0.684-1.074 1.025-2.136 1.025-3.184 0-0.496-0.094-0.989-0.281-1.48s-0.441-0.906-0.76-1.248zM22.523 11.771c-0.67-0.739-1.473-1.108-2.408-1.108-0.979 0-1.777 0.336-2.393 1.009-0.254 0.276-0.454 0.604-0.603 0.984s-0.223 0.758-0.223 1.133c0 0.794 0.22 1.473 0.659 2.035s1.018 0.893 1.732 0.992l0.264 0.016 0.197 0.034c0.33 0.044 0.495 0.171 0.495 0.38 0 0.221-0.215 0.568-0.644 1.042-0.451 0.485-1.183 0.998-2.194 1.538-0.419 0.221-0.628 0.496-0.628 0.827 0 0.21 0.072 0.384 0.215 0.521 0.144 0.138 0.325 0.206 0.545 0.206 0.55 0 1.31-0.319 2.277-0.959 1.145-0.75 2.056-1.662 2.732-2.738 0.676-1.074 1.015-2.136 1.015-3.184 0-0.496-0.093-0.989-0.28-1.48-0.185-0.49-0.438-0.906-0.758-1.248z"></path>
</symbol>
<symbol id="icon-hammer" viewBox="0 0 32 32">
<path d="M12.312 10.015l-3.379-2.514 3.379-2.425h10.656v4.938h-10.656zM16.032 3.003h2.928v0.997h-2.928v-0.997zM18.943 11.099l1.104 17.604c0 0.715-0.578 1.293-1.293 1.293h-2.523c-0.715 0-1.293-0.578-1.293-1.293l1.045-17.604h2.96zM17.527 28.602c0.55 0 0.996-0.445 0.996-0.996s-0.446-0.996-0.996-0.996c-0.551 0-0.997 0.445-0.997 0.996s0.447 0.996 0.997 0.996z"></path>
</symbol>
<symbol id="icon-arrow-long-left" viewBox="0 0 20 20">
<path d="M0.75 10l5.25-5.5v3.5h13v4h-13v3.5l-5.25-5.5z"></path>
</symbol>
<symbol id="icon-arrow-long-right" viewBox="0 0 20 20">
<path d="M14 15.5v-3.5h-13v-4h13v-3.5l5.25 5.5-5.25 5.5z"></path>
</symbol>
<symbol id="icon-flat-brush" viewBox="0 0 20 20">
<path d="M1.844 14.889c0.498 0.376 1.594-1.178 1.942-0.915s-0.82 1.762-0.528 1.982c0.292 0.22 1.513-1.239 1.852-0.984s-0.803 1.774-0.437 2.051c0.367 0.277 1.562-1.202 1.852-0.983s-0.773 1.797-0.437 2.050c0.336 0.254 1.481-1.263 1.76-1.052s-0.844 1.743-0.346 2.119c0.498 0.375 5.37-8.964 5.37-8.964l-3.876-2.939c0 0-7.65 7.26-7.152 7.635zM13.023 0.831l-3.362 5.156 4.121 3.109 4.396-4.246c-0.527-1.503-3.44-3.843-5.155-4.019z"></path>
</symbol>
<symbol id="icon-plus" viewBox="0 0 20 20">
<path d="M16 10c0 0.553-0.048 1-0.601 1h-4.399v4.399c0 0.552-0.447 0.601-1 0.601s-1-0.049-1-0.601v-4.399h-4.399c-0.552 0-0.601-0.447-0.601-1s0.049-1 0.601-1h4.399v-4.399c0-0.553 0.447-0.601 1-0.601s1 0.048 1 0.601v4.399h4.399c0.553 0 0.601 0.447 0.601 1z"></path>
</symbol>
<symbol id="icon-facebook-with-circle" viewBox="0 0 20 20">
<path d="M10 0.4c-5.302 0-9.6 4.298-9.6 9.6s4.298 9.6 9.6 9.6 9.6-4.298 9.6-9.6-4.298-9.6-9.6-9.6zM12.274 7.034h-1.443c-0.171 0-0.361 0.225-0.361 0.524v1.042h1.805l-0.273 1.486h-1.532v4.461h-1.703v-4.461h-1.545v-1.486h1.545v-0.874c0-1.254 0.87-2.273 2.064-2.273h1.443v1.581z"></path>
</symbol>
<symbol id="icon-twitter" viewBox="0 0 20 20">
<path d="M17.316 6.246c0.008 0.162 0.011 0.326 0.011 0.488 0 4.99-3.797 10.742-10.74 10.742-2.133 0-4.116-0.625-5.787-1.697 0.296 0.035 0.596 0.053 0.9 0.053 1.77 0 3.397-0.604 4.688-1.615-1.651-0.031-3.046-1.121-3.526-2.621 0.23 0.043 0.467 0.066 0.71 0.066 0.345 0 0.679-0.045 0.995-0.131-1.727-0.348-3.028-1.873-3.028-3.703 0-0.016 0-0.031 0-0.047 0.509 0.283 1.092 0.453 1.71 0.473-1.013-0.678-1.68-1.832-1.68-3.143 0-0.691 0.186-1.34 0.512-1.898 1.861 2.285 4.644 3.787 7.781 3.945-0.064-0.277-0.097-0.564-0.097-0.861 0-2.084 1.689-3.773 3.774-3.773 1.086 0 2.067 0.457 2.756 1.191 0.859-0.17 1.667-0.484 2.397-0.916-0.282 0.881-0.881 1.621-1.66 2.088 0.764-0.092 1.49-0.293 2.168-0.594-0.506 0.758-1.146 1.422-1.884 1.953z"></path>
</symbol>
<symbol id="icon-search" viewBox="0 0 32 32">
<path d="M31.008 27.231l-7.58-6.447c-0.784-0.705-1.622-1.029-2.299-0.998 1.789-2.096 2.87-4.815 2.87-7.787 0-6.627-5.373-12-12-12s-12 5.373-12 12 5.373 12 12 12c2.972 0 5.691-1.081 7.787-2.87-0.031 0.677 0.293 1.515 0.998 2.299l6.447 7.58c1.104 1.226 2.907 1.33 4.007 0.23s0.997-2.903-0.23-4.007zM12 20c-4.418 0-8-3.582-8-8s3.582-8 8-8 8 3.582 8 8-3.582 8-8 8z"></path>
</symbol>
</defs>
</svg>
